<?xml version="1.0" standalone="no"?>
<!DOCTYPE svg PUBLIC "-//W3C//DTD SVG 20010904//EN"
 "http://www.w3.org/TR/2001/REC-SVG-20010904/DTD/svg10.dtd">
<svg version="1.0" xmlns="http://www.w3.org/2000/svg"
 width="700.000000pt" height="700.000000pt" viewBox="0 0 700.000000 700.000000"
 preserveAspectRatio="xMidYMid meet">
<metadata>
Created by potrace 1.14, written by Peter Selinger 2001-2017
</metadata>
<g transform="translate(0.000000,700.000000) scale(0.100000,-0.100000)"
fill="#000000" stroke="none">
<path d="M770 3500 l0 -2730 2158 2 2157 3 101 27 c177 47 292 98 442 197 216
142 409 379 506 622 65 162 87 272 93 464 6 201 -9 313 -62 473 -158 472 -537
808 -1036 919 -64 14 -175 17 -851 20 l-778 4 0 1365 0 1364 -298 0 -298 0
-384 -945 c-211 -520 -386 -942 -389 -939 -3 3 -177 427 -387 942 l-380 937
-297 3 -297 2 0 -2730z m834 680 l274 -675 254 -3 253 -2 280 689 280 689 3
-689 2 -689 275 0 275 0 0 -1095 0 -1095 -1095 0 -1095 0 1 1793 c0 1132 4
1785 10 1772 5 -11 133 -324 283 -695z m3516 -1268 c125 -43 215 -98 307 -186
120 -114 192 -233 234 -391 28 -103 30 -288 6 -387 -74 -302 -305 -534 -609
-615 -53 -14 -137 -17 -535 -20 l-473 -4 0 821 0 821 488 -3 487 -3 95 -33z"/>
</g>
</svg>
